<svg xmlns="http://www.w3.org/2000/svg" width="141.732" height="59.402" viewBox="0 0 141.732 59.402">
  <g id="Tryg_logo" transform="translate(0 -0.598)">
    <g id="Group_64" data-name="Group 64">
      <path id="Path_92" data-name="Path 92" d="M141.732,50.944A9.081,9.081,0,0,1,132.678,60H9.055A9.083,9.083,0,0,1,0,50.944V9.653A9.083,9.083,0,0,1,9.055.6H132.678a9.081,9.081,0,0,1,9.054,9.055V50.944" fill="#fff" fill-rule="evenodd"/>
      <path id="Path_93" data-name="Path 93" d="M127.184,39.326c-.174.212-.434.468-.573.622a12.51,12.51,0,0,1-3.64,2.744q-.528.265-1.075.48a14.02,14.02,0,0,0,3.94-3.27,5.064,5.064,0,0,1-1.705-.988c-.961-.776-1.637-1.609-1.516-2.4.16-.166.313-.337.459-.517a8.464,8.464,0,0,0-.732-11.437c.781.107,1.6-.568,2.371-1.52a3.235,3.235,0,0,0,1.029-2.546,13.761,13.761,0,0,1,1.442,18.829ZM116.5,23.16a7.515,7.515,0,1,1-4.738,13.353A7.515,7.515,0,0,1,116.5,23.16Zm-10.691-1.137c.187-.23.38-.449.578-.665a3.432,3.432,0,0,1,2.437,1.048,4.405,4.405,0,0,1,1.432,1.709,8.227,8.227,0,0,1,4-1.72,9.384,9.384,0,0,0-4.008,2.58c-.1.1-.195.213-.289.326l-.1.131a8.435,8.435,0,0,0,.864,11.42c-.827-.227-1.709.471-2.532,1.488a3.5,3.5,0,0,0-1.052,2.4,13.755,13.755,0,0,1-1.33-18.719Zm-.8-.648A14.786,14.786,0,1,0,116.506,15.9a14.785,14.785,0,0,0-11.492,5.475Zm-31.9,10.674H73c-2.346,0-3.439-1.124-3.439-3.547,0-2.386,1.121-3.547,3.439-3.547h.141c2.269.027,3.377,1.192,3.377,3.547,0,2.4-1.077,3.518-3.4,3.547Zm.031-10.092c-4.847,0-9.242,1.586-9.242,7.036a5.7,5.7,0,0,0,3.559,5.313l.129.059-.555.394c-1.5,1.014-3.117,2.455-3.117,4.473a3.173,3.173,0,0,0,2.367,2.933,15.779,15.779,0,0,0,5.258.625c.771.034,3.387-.262,4.6.185a1.239,1.239,0,0,1,.77,1.074c0,.934-1.459,3.485-1.459,3.485h5.512l.261-.575.862-1.92a4.294,4.294,0,0,0,.386-1.813v-.051c-.185-4.74-5.759-4.705-6.82-4.776L72,38.3s-1.982.1-1.982-1.179c0-.834.836-1.527,1.744-2.1,0,0,1.261.108,2.275.108,4.637,0,8.092-1.967,8.092-6.136a7.943,7.943,0,0,0-1.2-3.734l2.615.132V22.239H77.158a27.192,27.192,0,0,0-4.01-.282ZM52.73,33.667c-.132-.411-3.527-10.456-3.853-11.428H42.291c.76,1.67,7.486,16.425,7.535,16.548L46.1,46.349l6.087,0L63.2,22.239H56.582ZM28.994,23.047V38.456h5.772V26.618a18.246,18.246,0,0,1,3.478-.393,20.31,20.31,0,0,1,2.031.122V22.064S38.863,22,38.3,22a37.028,37.028,0,0,0-9.307,1.046Zm-20.166-2.1h6.535V38.459h5.948V20.948h6.595V16.886H8.828Zm83.549,28.2h1.5V10.582h-1.5Z" fill="#960303" fill-rule="evenodd"/>
    </g>
  </g>
</svg>
