<svg id="logo" xmlns="http://www.w3.org/2000/svg" width="102.024" height="42.685" viewBox="0 0 102.024 42.685">
  <path id="Path_83" data-name="Path 83" d="M84.231,35.309a.416.416,0,0,1,.062-.617c.123-.123,12.152-12.645,12.152-12.645A.782.782,0,0,1,97,21.8h9.191a.285.285,0,0,1,.185.493c-.123.123-11.72,12.213-11.843,12.337a.467.467,0,0,0,0,.617c.185.247,11.72,14.681,11.9,14.866a.273.273,0,0,1-.185.432H97.061a.857.857,0,0,1-.617-.308c-.247-.123-12.09-14.8-12.213-14.927" transform="translate(-32.232 -8.353)" fill="#fff"/>
  <path id="Path_84" data-name="Path 84" d="M51.1,42.028a.487.487,0,0,0,.493.493H58.07a.487.487,0,0,0,.493-.493V1.193A.487.487,0,0,0,58.07.7H51.593a.477.477,0,0,0-.493.432v40.9Z" transform="translate(-19.58 -0.268)" fill="#fff"/>
  <path id="Path_85" data-name="Path 85" d="M79.952,58.826A4.626,4.626,0,1,1,75.326,54.2a4.62,4.62,0,0,1,4.626,4.626" transform="translate(-27.09 -20.768)" fill="#fff"/>
  <path id="Path_86" data-name="Path 86" d="M78.6,15.853S79.829,7.4,79.952,4.626h0a4.626,4.626,0,0,0-9.253,0h0c.123,2.9,1.419,11.288,1.419,11.288L74.4,29.793a.945.945,0,0,0,.987.8,1.04,1.04,0,0,0,.987-.8Z" transform="translate(-27.09)" fill="#fff"/>
  <path id="Path_87" data-name="Path 87" d="M16.716,21.8H4.194a.477.477,0,0,0-.493.432v4.626a.531.531,0,0,0,.493.493H15.853a3.715,3.715,0,0,1,3.639,3.578v1.48a.477.477,0,0,1-.432.493H13.94a21.514,21.514,0,0,0-9.314,1.665A7.927,7.927,0,0,0,2.961,47.954c3.146,2.652,9.993,3.763,23.563,2.591a.412.412,0,0,0,.37-.432V32.039A10.158,10.158,0,0,0,16.716,21.8m2.776,23.625a.462.462,0,0,1-.37.432c-.925.123-6.909.432-9.129-.74a3.951,3.951,0,0,1-2.1-3.331,3.318,3.318,0,0,1,1.974-3.022,8.872,8.872,0,0,1,4.071-.74h5.12a.44.44,0,0,1,.432.493Z" transform="translate(0 -8.353)" fill="#fff"/>
  <path id="Path_88" data-name="Path 88" d="M138.454,21.8H125.933a.477.477,0,0,0-.493.432v4.626a.531.531,0,0,0,.493.493h11.658a3.715,3.715,0,0,1,3.639,3.578v1.48a.477.477,0,0,1-.432.493h-5.12a21.514,21.514,0,0,0-9.314,1.665,7.824,7.824,0,0,0-4.565,7.155,7.939,7.939,0,0,0,2.961,6.168c3.146,2.714,10.054,3.824,23.563,2.652a.412.412,0,0,0,.37-.432V31.978A10.238,10.238,0,0,0,138.454,21.8m2.776,23.625a.462.462,0,0,1-.37.432c-.925.123-6.909.432-9.129-.74a3.951,3.951,0,0,1-2.1-3.331,3.318,3.318,0,0,1,1.974-3.022,8.873,8.873,0,0,1,4.071-.74h5.12a.44.44,0,0,1,.432.493Z" transform="translate(-46.67 -8.353)" fill="#fff"/>
</svg>
