<svg id="download" xmlns="http://www.w3.org/2000/svg" width="76.692" height="75.474" viewBox="0 0 76.692 75.474">
  <g id="Group_63" data-name="Group 63">
    <path id="Path_89" data-name="Path 89" d="M76.692,37.737c0,20.83-17.178,37.737-38.346,37.737S0,58.567,0,37.737,17.178,0,38.346,0,76.692,16.907,76.692,37.737Z" fill="#fff"/>
    <g id="Group_52" data-name="Group 52" transform="translate(15.689 10.618)">
      <path id="Path_90" data-name="Path 90" d="M41.7,32.607a.3.3,0,0,0,.271.406l3.246-.068s-4.4,17.584-5.275,21.168c-1.082,4.464-2.908,8.995-4.193,10.618-1.15,1.42-1.894,1.894-2.705,1.894-1.082,0-1.623-.812-1.961-2.1-.2-.947-.812-2.232-2.164-2.232A3.706,3.706,0,0,0,25.6,65.813c0,2.57,4.328,3.179,5.748,3.179,2.84,0,6.56-1.826,8.995-4.666,3.179-3.584,4.937-8.048,6.56-14.337l3.99-17.11,4.193.068a.6.6,0,0,0,.541-.406l.541-1.555a.3.3,0,0,0-.271-.406H51.57c1.014-3.652,2.57-8.995,5.546-11.9a2.891,2.891,0,0,1,1.691-.879c1.15,0,1.488.676,2.029,1.758.473,1.082.406,2.908,2.029,2.908,1.894,0,3.314-2.1,3.314-3.517,0-1.961-3.381-3.246-6.154-3.246A12.205,12.205,0,0,0,51.5,19.284c-3.179,3.246-4.666,8.048-5.681,11.362l-3.246-.068a.632.632,0,0,0-.473.338Zm16.84,17.854a3.192,3.192,0,0,1-3.179,3.246,2.436,2.436,0,0,1-2.57-2.84,3.354,3.354,0,0,1,3.179-3.381,2.611,2.611,0,0,1,2.57,2.976Zm9.4,0a3.192,3.192,0,0,1-3.179,3.246,2.436,2.436,0,0,1-2.57-2.84,3.354,3.354,0,0,1,3.179-3.381,2.683,2.683,0,0,1,2.57,2.976Zm9.333,0a3.192,3.192,0,0,1-3.179,3.246c-1.555,2.029-2.705-1.014-2.57-2.84A3.354,3.354,0,0,1,74.7,47.486a2.646,2.646,0,0,1,2.57,2.976ZM37.029,18.811A3.63,3.63,0,0,0,33.58,22.4a2.545,2.545,0,0,0,2.705,2.976,3.426,3.426,0,0,0,3.449-3.517A2.627,2.627,0,0,0,37.029,18.811Z" transform="translate(-23.977 -15.7)" fill="#870000"/>
      <path id="Path_91" data-name="Path 91" d="M31.586,50.764l2.976-7.236a14.106,14.106,0,0,0,1.353-4.6,1.912,1.912,0,0,0-2.1-2.029c-4.058,0-8.386,4.734-10.009,6.628a.386.386,0,0,0,.068.609l.744.744a.358.358,0,0,0,.541-.068,32.956,32.956,0,0,1,2.705-2.705,1.592,1.592,0,0,1,.676-.338c.271,0,.406.406.406.609a12.783,12.783,0,0,1-1.014,3.111L24.823,53.4c-1.082,2.638-1.623,4.058-1.623,5.207,0,1.353.744,2.435,2.638,2.435,4.328,0,9.739-6.492,9.739-6.492a.422.422,0,0,0,0-.609l-.812-.744a.427.427,0,0,0-.609,0s-2.908,3.246-3.922,3.246c-.473,0-.406-.541-.406-.609a5.217,5.217,0,0,1,.473-1.758Z" transform="translate(-23.2 -22.563)" fill="#870000"/>
    </g>
  </g>
</svg>
