<svg xmlns="http://www.w3.org/2000/svg" width="135.905" height="28.5" viewBox="0 0 135.905 28.5">
  <g id="Nordea_logo" data-name="Nordea logo" transform="translate(-0.1 -0.1)">
    <path id="Path_77" data-name="Path 77" d="M124.1,6.2a11.166,11.166,0,0,0,.8,22.3,8.232,8.232,0,0,0,6.8-3.6v3.3H136V17.6A10.89,10.89,0,0,0,124.1,6.2Zm7.3,11.4a6.331,6.331,0,0,1-7.2,6,6.576,6.576,0,0,1-5.6-5.6,6.427,6.427,0,1,1,12.8-1.1v.7Z" fill="#fff"/>
    <path id="Path_78" data-name="Path 78" d="M100.5,6.2a11.2,11.2,0,1,0,10.7,15.5l-4.3-1.3a6.559,6.559,0,0,1-11.7.4l16.7-4.6C111.4,11.8,107.6,6,100.5,6.2ZM94.3,16.8a6.573,6.573,0,0,1,4.4-6.1,6.1,6.1,0,0,1,7.7,2.8Z" fill="#fff"/>
    <path id="Path_79" data-name="Path 79" d="M63.8,10.7V6.1c-4.2,0-5.6,2.1-6.3,3.2V6.8H52.7V28.1h4.9V17.6C57.6,12.8,60.4,10.9,63.8,10.7Z" fill="#fff"/>
    <path id="Path_80" data-name="Path 80" d="M19.7,19.6,5.1,2.4H.1V28.1H5.3V10.9L20.1,28.2h4.5V2.4H19.7Z" fill="#fff"/>
    <path id="Path_81" data-name="Path 81" d="M86.7.1H82.1V8.5C81,7.1,77.6,5.9,74.7,6.2a11.166,11.166,0,0,0,.8,22.3c2.4,0,5.7-1.1,6.8-3.2v2.8h4.3v-11l.1-17ZM81.9,17.6a6.331,6.331,0,0,1-7.2,6A6.576,6.576,0,0,1,69.1,18a6.427,6.427,0,1,1,12.8-1.1S81.9,17.6,81.9,17.6Z" fill="#fff"/>
    <path id="Path_82" data-name="Path 82" d="M38.7,6.1A11.2,11.2,0,1,0,49.9,17.3,11.311,11.311,0,0,0,38.7,6.1Zm0,17.6a6.4,6.4,0,1,1,6.4-6.4A6.38,6.38,0,0,1,38.7,23.7Z" fill="#fff"/>
  </g>
</svg>
