<svg id="Layer_4" data-name="Layer 4" xmlns="http://www.w3.org/2000/svg" width="208.506" height="38.745" viewBox="0 0 208.506 38.745">
  <path id="Path_94" data-name="Path 94" d="M4.551,7.248l-1.517-2.3H.7v2.3H0V.012H2.5a2.378,2.378,0,0,1,2.706,2.46A2.214,2.214,0,0,1,3.69,4.727l1.62,2.46Zm0-4.715c0-1.148-.7-1.8-2.05-1.8H.7V4.337H2.481c1.333,0,2.03-.677,2.03-1.8Z" transform="translate(0 0.07)"/>
  <path id="Path_95" data-name="Path 95" d="M8.095,6.581v.656H3.4V0H7.951V.718H4.1V3.28H7.541v.636H4.1V6.581Z" transform="translate(3.57 0.082)"/>
  <path id="Path_96" data-name="Path 96" d="M8.4.718H6V0h5.453V.718H9.116V7.237H8.4Z" transform="translate(6.3 0.082)"/>
  <path id="Path_97" data-name="Path 97" d="M8.88,6.418l.246-.595A3.075,3.075,0,0,0,11.32,6.7c1.25,0,1.784-.574,1.784-1.271C13.1,3.384,9,4.675,9,2.01c0-1.046.759-2.05,2.46-2.05A3.506,3.506,0,0,1,13.513.6l-.246.615A3.2,3.2,0,0,0,11.443.6c-1.148.082-1.7.677-1.7,1.5,0,2.05,4.1.779,4.1,3.4,0,1.046-.779,2.05-2.481,2.05A3.485,3.485,0,0,1,8.88,6.418Z" transform="translate(9.324 0.04)"/>
  <path id="Path_98" data-name="Path 98" d="M17.6,0V7.175h-.677V3.936h-4.1v3.3h-.7V0h.7V3.26h4.1V0Z" transform="translate(12.737 0.082)"/>
  <path id="Path_99" data-name="Path 99" d="M15.35,6.273l.431-.513a1.64,1.64,0,0,0,1.435.882c.8,0,1.23-.513,1.23-1.579V.718h-2.44V0h3.137V5.043c0,1.517-.677,2.255-1.948,2.255A2.05,2.05,0,0,1,15.35,6.273Z" transform="translate(16.118 0.082)"/>
  <path id="Path_100" data-name="Path 100" d="M26.968,6.549v.656H22.253V5.3H19.526L18.378,7.205H17.64L21.74.03h5.043V.686H22.95V3.249h3.465v.636H22.95V6.549ZM22.253,4.684v-4h-.144l-2.235,4Z" transform="translate(18.522 0.114)"/>
  <path id="Path_101" data-name="Path 101" d="M23,0h.718V6.581h3.711v.656H23Z" transform="translate(24.15 0.082)"/>
  <path id="Path_102" data-name="Path 102" d="M31.038,2.537A2.4,2.4,0,0,1,28.271,5H26.487V7.252h-.7V.015h2.481a2.4,2.4,0,0,1,2.768,2.522Zm-.7,0c0-1.148-.718-1.8-2.05-1.8H26.528V4.32h1.743c1.353,0,2.05-.656,2.05-1.784Z" transform="translate(27.08 0.067)"/>
  <path id="Path_103" data-name="Path 103" d="M33.845,6.581v.656H29.13V0H33.7V.718H29.847V3.28h3.444v.636H29.847V6.581Z" transform="translate(30.587 0.082)"/>
  <path id="Path_104" data-name="Path 104" d="M37.856,0V7.175h-.574L32.977,1.415V7.237h-.7V0h.574l4.285,5.822V0Z" transform="translate(33.894 0.082)"/>
  <path id="Path_105" data-name="Path 105" d="M4.777,9.039v7.5H14.35V21.79H4.777V32.04H0V3.77H15.58V9.039Z" transform="translate(0 4.041)"/>
  <path id="Path_106" data-name="Path 106" d="M20.591,22.077V32.122H15.835V21.995L7.86,3.77h5.064L18.4,16.378,23.932,3.77h4.715Z" transform="translate(8.253 4.041)"/>
  <path id="Path_107" data-name="Path 107" d="M37.821,3.77V32.122H33.905L23.655,14.9v17.22H18.94V3.77h3.936l10.25,17.22V3.77Z" transform="translate(19.887 4.041)"/>
  <path id="Path_108" data-name="Path 108" d="M40.1,17.031V15.924c-2.767-.9-5.351-1.435-5.351-3.875,0-1.784,1.086-3.239,3.916-3.239a5.7,5.7,0,0,1,1.169.144,11.541,11.541,0,0,1,.431-5.289,11.623,11.623,0,0,0-1.456-.123,8.2,8.2,0,0,0-8.795,8.836c0,7.872,6.622,7.852,10,9.533v-.349a11.953,11.953,0,0,1,0-2.706,13.553,13.553,0,0,1,.082-1.825Z" transform="translate(31.486 3.777)"/>
  <path id="Path_109" data-name="Path 109" d="M40.285,20.339a10.864,10.864,0,0,1,0-1.414,11.193,11.193,0,0,1,0-2.05,3.961,3.961,0,0,0,0-.492,5.063,5.063,0,0,1-2.05.39,10,10,0,0,1-6.786-2.952L29.83,18.761a11.972,11.972,0,0,0,8.385,3.28,9.594,9.594,0,0,0,2.05-.266A11.54,11.54,0,0,1,40.285,20.339Z" transform="translate(31.322 14.593)"/>
  <path id="Path_110" data-name="Path 110" d="M60.659,3.77,51.742,32.122H47.027L38.15,3.77H43.3l6.273,20.254L55.924,3.77Z" transform="translate(40.058 4.041)"/>
  <path id="Path_111" data-name="Path 111" d="M66.031,26.792v5.33H50V3.77H65.56V9.039H54.817v6.15H64.35v5.1H54.817v6.5Z" transform="translate(52.5 4.041)"/>
  <path id="Path_112" data-name="Path 112" d="M78.7,3.77V32.122H74.725L64.475,14.9v17.22H59.76V3.77H63.7l10.25,17.22V3.77Z" transform="translate(62.748 4.041)"/>
  <path id="Path_113" data-name="Path 113" d="M90.311,3.77V32.122H86.4L76.145,14.9v17.22H71.43V3.77h3.936l10.25,17.22V3.77Z" transform="translate(75.002 4.041)"/>
  <path id="Path_114" data-name="Path 114" d="M99.049,26.792v5.33H83.1V3.77H98.68V9.039H87.836v6.15h9.574v5.1H87.836v6.5Z" transform="translate(87.255 4.041)"/>
  <path id="Path_115" data-name="Path 115" d="M105.93,32.122l-3.957-7.893H97.587v7.893H92.81V3.77h8.918c5.515,0,8.959,3.936,8.959,10.25a9.779,9.779,0,0,1-4.244,8.959l4.613,9.1Zm-4.531-23H97.587V19H101.4c2.911,0,4.387-1.866,4.387-4.941S104.372,9.121,101.4,9.121Z" transform="translate(97.451 4.041)"/>
  <rect id="Rectangle_177" data-name="Rectangle 177" width="0.697" height="38.602" transform="translate(71.074 0.144)"/>
</svg>
