<svg id="Layer_1" data-name="Layer 1" xmlns="http://www.w3.org/2000/svg" width="200" height="67.158" viewBox="0 0 200 67.158">
  <path id="Path_14" data-name="Path 14" d="M204.15,76.607c0,2.617-.287,2.889-2.656,2.889-2.539,0-2.617-.272-2.617-2.889V69.68H195.39v7.3c0,2.392.194,3.238,1,4.069s1.646,1.095,5.071,1.095,4.217-.326,4.97-1.095,1.188-1.677,1.188-4.069v-7.3H204.15Z" transform="translate(-42.229 -14.986)" fill="#a0a0a0"/>
  <path id="Path_15" data-name="Path 15" d="M103.543,69.68H99.21l-3.728,4.791H94.061V69.68H90.629L90.59,81.927h3.471V76.592h1.413L99.5,81.927h4.784l-5.8-6.508Z" transform="translate(-19.574 -14.986)" fill="#a0a0a0"/>
  <path id="Path_16" data-name="Path 16" d="M148.067,42.528V40.09H137.94V52.337h10.127V49.883h-6.717V47.429h6.158V45.013h-6.158V42.528Z" transform="translate(-29.824 -8.626)" fill="#a0a0a0"/>
  <path id="Path_17" data-name="Path 17" d="M205.21,52.337h10.119V49.883h-6.71V47.429h6.158V45.013h-6.158V42.528h6.71V40.09H205.21Z" transform="translate(-44.101 -8.626)" fill="#a0a0a0"/>
  <path id="Path_18" data-name="Path 18" d="M252.372,72.126V69.68H242.23V81.927h10.142V79.48h-6.71V77.026h6.15V74.6h-6.15V72.126Z" transform="translate(-52.372 -14.986)" fill="#a0a0a0"/>
  <path id="Path_19" data-name="Path 19" d="M94.31,49.281a5.079,5.079,0,0,1-.916-3.106,5.234,5.234,0,0,1,.916-3.184c.334-.381.668-.6,2.555-.6s2.213.217,2.555.6a5.281,5.281,0,0,1,.909,3.184,5.133,5.133,0,0,1-.909,3.106c-.342.381-.668.59-2.555.59s-2.221-.179-2.555-.59m7.618,2.1a7.6,7.6,0,0,0,1.825-5.211,7.766,7.766,0,0,0-1.825-5.3c-.73-.73-1.825-1.041-5.087-1.041s-4.349.311-5.079,1.041a7.719,7.719,0,0,0-1.825,5.3,7.564,7.564,0,0,0,1.825,5.242c.73.777,1.825,1.048,5.079,1.048s4.357-.3,5.087-1.048" transform="translate(-19.431 -8.567)" fill="#a0a0a0"/>
  <path id="Path_20" data-name="Path 20" d="M122.865,49.282c-.349.419-.676.544-2.244.544h-2.47V42.65h2.47c1.623,0,2.05.194,2.33.567a5.524,5.524,0,0,1-.085,6.057m4.426-3.036a7.4,7.4,0,0,0-1.74-5.141c-.777-.777-1.957-1.017-4.659-1.017H114.68V52.334h6.368c2.438,0,3.409-.171,3.883-.481,1.39-.932,2.33-3.106,2.33-5.607" transform="translate(-24.784 -8.623)" fill="#a0a0a0"/>
  <path id="Path_21" data-name="Path 21" d="M228.2,79.465h-.528l-3.324-9.785h-6V81.927h2.9l.023-9.917h.544l3.339,9.917h5.987V69.68h-2.881Z" transform="translate(-47.037 -14.986)" fill="#a0a0a0"/>
  <path id="Path_22" data-name="Path 22" d="M168.317,49.875h-.528l-3.324-9.785h-6V52.337h2.9l.023-9.917h.544l3.339,9.917h5.987V40.09h-2.881Z" transform="translate(-34.246 -8.626)" fill="#a0a0a0"/>
  <path id="Path_23" data-name="Path 23" d="M120.842,78.9c-.342.388-.668.6-2.555.6s-2.213-.21-2.555-.6a5.133,5.133,0,0,1-.909-3.106,5.281,5.281,0,0,1,.909-3.184c.342-.381.668-.59,2.555-.59s2.213.21,2.555.59a5.234,5.234,0,0,1,.909,3.184,5.079,5.079,0,0,1-.909,3.106m-2.57-9.482c-3.254,0-4.357.311-5.079,1.041a7.719,7.719,0,0,0-1.825,5.3,7.579,7.579,0,0,0,1.825,5.25c.722.777,1.825,1.048,5.079,1.048s4.357-.311,5.079-1.048a7.587,7.587,0,0,0,1.833-5.25,7.719,7.719,0,0,0-1.833-5.3c-.722-.73-1.817-1.041-5.079-1.041" transform="translate(-24.061 -14.928)" fill="#a0a0a0"/>
  <path id="Path_24" data-name="Path 24" d="M146.593,69.68l-1.732,9.156h-.59l-1.708-9.156h-6.29l-1.1,12.247h3.378l.683-9.909h.777l2.174,9.909h4.729l2.26-9.917h.73l.691,9.917h3.355L152.853,69.68Z" transform="translate(-29.178 -14.986)" fill="#a0a0a0"/>
  <path id="Path_25" data-name="Path 25" d="M176.656,69.68l-1.732,9.156h-.59l-1.7-9.156h-6.3L165.24,81.927h3.37l.691-9.909h.769l2.174,9.909h4.729l2.26-9.917h.73l.691,9.917h3.355L182.915,69.68Z" transform="translate(-35.669 -14.986)" fill="#a0a0a0"/>
  <path id="Path_26" data-name="Path 26" d="M188.231,39.818c-3.673,0-4.248.272-5.071,1.118a4.745,4.745,0,0,0-1.033,3.106,3.2,3.2,0,0,0,.575,2.415,3.5,3.5,0,0,0,2.648.777c.7,0,4.162.093,4.613.109.87,0,.994.078,1.087.621a2.617,2.617,0,0,1-.311,1.553c-.194.311-.621.621-2.33.621-1.514,0-2.066-.1-2.33-.435a2.011,2.011,0,0,1-.28-.738h-3.627a5.273,5.273,0,0,0,.443,1.553,3.681,3.681,0,0,0,.777,1.072c.621.59,2.035.831,4.854.831,3.961,0,4.411-.3,5.063-.978a4.03,4.03,0,0,0,.947-1.639,9.077,9.077,0,0,0,.28-1.926,4.5,4.5,0,0,0,0-1.157,2.12,2.12,0,0,0-.52-1.111,2.33,2.33,0,0,0-.986-.629,5.328,5.328,0,0,0-1.732-.272H189.28c-1.91-.039-2.33-.047-2.842-.078s-.777-.124-.823-.652a2.26,2.26,0,0,1,.311-1.382c.249-.357.707-.559,2.291-.559a6.647,6.647,0,0,1,1.778.171,1.033,1.033,0,0,1,.668.458,3.658,3.658,0,0,1,.233.629h3.417a4.869,4.869,0,0,0-1.048-2.438c-.668-.777-2.05-1.048-4.931-1.048" transform="translate(-39.351 -8.563)" fill="#a0a0a0"/>
  <path id="Path_27" data-name="Path 27" d="M31.624,39.3l-.5.186h-.047a4.03,4.03,0,0,1,.916,2.33v.412a3.029,3.029,0,0,1-.621,1.988,1.693,1.693,0,0,1-.59.435c0,.109,0,.2,0,.287a3.161,3.161,0,0,1-.148,1.2V46.2a34.34,34.34,0,0,0,5.824.481A30.519,30.519,0,0,0,45,45.615h0a15.392,15.392,0,0,0-3.549-8.4,37.959,37.959,0,0,1-10.406-.062c.124.629.264,1.219.381,1.662Z" transform="translate(-6.843 -8.008)" fill="#a0a0a0"/>
  <path id="Path_28" data-name="Path 28" d="M51.033,24.618l-.87-1.328a11.843,11.843,0,0,1-2.811,1.887h0a7.4,7.4,0,0,0-4.194-.963A6.585,6.585,0,0,0,38.685,26.9v.093a2.167,2.167,0,0,1-4.333,0V26.9a6.88,6.88,0,0,0-3.712-2.547v6.415c.054.458.116.94.163,1.274l.078.536a.683.683,0,0,1,0,.124,37.206,37.206,0,0,0,10.507.116l.272-.9c.287-.963.5-1.654.878-3.246l.388-1.608.777,1.452a12.736,12.736,0,0,0,.815,1.336l.264.412c.318.513.613.582.839.582a4.97,4.97,0,0,0,2.205-1.017c1.118-.777,2.679-1.934,4.434-3.339-.334-.528-.777-1.211-1.243-1.879" transform="translate(-6.846 -5.021)" fill="#a0a0a0"/>
  <path id="Path_29" data-name="Path 29" d="M25.207,36.684c-.342-.66-.994-1.98-1.553-3.238A8.628,8.628,0,0,1,22.66,30.1a18.164,18.164,0,0,1,1.67-4.939,7.944,7.944,0,0,1,3.168-.73V29.8a28.376,28.376,0,0,0,.94,5.894l-1.9.582-1.32.4" transform="translate(-5.063 -5.258)" fill="#a0a0a0"/>
  <path id="Path_30" data-name="Path 30" d="M29.885,42.676v.311a1.98,1.98,0,0,1-.334,1.243.862.862,0,0,1-.5.28,2.943,2.943,0,0,1-.381.054V45.7a2.066,2.066,0,0,1-.109.893.831.831,0,0,1-.707.45c-.078,0-.3,0-.45-.52l-.373-1.2A12.084,12.084,0,0,1,26.39,43a8.356,8.356,0,0,1,.474-1.685l.87-.272,1.219-.365h0a3.106,3.106,0,0,1,.971,1.988" transform="translate(-5.896 -8.786)" fill="#a0a0a0"/>
  <path id="Path_31" data-name="Path 31" d="M3.938,32.929a1.91,1.91,0,0,0-1.157,1.879,2.035,2.035,0,0,1-.59-1.375c.062-2.951,4.659-3.106,4.659-6.7V24.565c0-2.7-1.491-2.648-2.555-3.937a2.47,2.47,0,0,0-1.421,1.957,2.671,2.671,0,0,1-.357-1.243c-.132-1.864,1.825-3.448,3.929-4.194a9.839,9.839,0,0,0,.078-5.6C3.488,12,1.4,14.089,1.4,17.941v2.5c0,4.17,4.621,4.341,4.621,6.655a2,2,0,0,1-.311,1.048c-.109-.862-.932-1.351-1.646-1.7C3.053,28.13,1.22,27.889,1.22,31.065v1.662c0,4.178,4.908,4.131,4.908,7.145a1.778,1.778,0,0,1-.28.94c-.085-.551-.249-1.064-.683-1.188a6.9,6.9,0,0,1-2.33,3.161v.87c2.182-.777,4.054-2.485,4.054-4.116V37.884c0-3.6-1.8-3.813-2.951-4.955" transform="translate(-0.273 -2.585)" fill="#a0a0a0"/>
  <path id="Path_32" data-name="Path 32" d="M38.9,27.761A1.041,1.041,0,1,0,37.861,28.8,1.041,1.041,0,0,0,38.9,27.761" transform="translate(-8.226 -5.786)" fill="#a0a0a0"/>
  <path id="Path_33" data-name="Path 33" d="M38.17,3.52Z" transform="translate(-8.528 -0.791)" fill="#a0a0a0"/>
  <path id="Path_34" data-name="Path 34" d="M39.728,56.188l-.2-.528A34.947,34.947,0,0,1,37.763,51H37.3a34.17,34.17,0,0,1-1.763,4.659l-.225.5a2.331,2.331,0,0,0,0,.272v2.035h4.426v-1.46a7.09,7.09,0,0,0,0-.831" transform="translate(-7.888 -11.006)" fill="#a0a0a0"/>
  <path id="Path_35" data-name="Path 35" d="M39.54,24.2a2.174,2.174,0,0,1,.629.528,7.641,7.641,0,0,1,4.869-2.586,8.465,8.465,0,0,1,3.642.536,5.848,5.848,0,0,0-1.173-1.74,10.282,10.282,0,0,0-2.431-1.794c-4.155.777-5.11,3.363-5.537,5.071" transform="translate(-8.55 -4.138)" fill="#a0a0a0"/>
  <path id="Path_36" data-name="Path 36" d="M55.5,10.351a.559.559,0,0,0,.249-.062.644.644,0,0,0-.054.249.613.613,0,1,0,1.227,0,.435.435,0,0,0,0-.179h1.553v2.33A3.254,3.254,0,0,0,56.522,18c.427.047.994.109,1.553.148a8.045,8.045,0,0,1,2.058-1.5,2.9,2.9,0,0,1,2.019-.062,3.658,3.658,0,0,0,.078-.714,3.246,3.246,0,0,0-2.6-3.2v-2.33h1.553a.435.435,0,0,0,0,.179.613.613,0,0,0,1.219,0,.645.645,0,0,0-.054-.249.567.567,0,0,0,.256.062.606.606,0,0,0,.606-.6.6.6,0,0,0-.606-.59.559.559,0,0,0-.256.054.637.637,0,0,0,.054-.241.613.613,0,0,0-1.219,0,.42.42,0,0,0,0,.171H59.628V7.711a.582.582,0,0,0,.2,0,.621.621,0,0,0,.575-.6.614.614,0,0,0-.606-.621.559.559,0,0,0-.256.054.629.629,0,0,0,.085-.264.613.613,0,1,0-1.165.264.551.551,0,0,0-.249-.054.613.613,0,0,0-.613.621.621.621,0,0,0,.613.637.582.582,0,0,0,.2,0V9.186H56.864a.606.606,0,1,0-1.2-.171.637.637,0,0,0,.054.241.551.551,0,0,0-.249-.054.6.6,0,0,0-.613.59.606.606,0,0,0,.613.6" transform="translate(-11.865 -1.27)" fill="#a0a0a0"/>
  <path id="Path_37" data-name="Path 37" d="M46.594,68.1a3.518,3.518,0,0,1,1.421-1.336,13.611,13.611,0,0,1-.683-4.45l-.07-1.134c-.078-.839-.093-1.553-.093-2.112V55.621a12.721,12.721,0,0,0-.5-2.609c-.21-.777-.45-1.747-.691-2.982a30.139,30.139,0,0,1-5.863.73A35.932,35.932,0,0,0,41.663,54.9l.3.683a2.236,2.236,0,0,1,.062.629c0,.163,0,.357,0,.606v.9a9.2,9.2,0,0,0,.179,1.988,16.448,16.448,0,0,0,1.056,3.029l.652,1.437a11.027,11.027,0,0,1,.73,3.332h0a6.352,6.352,0,0,0,1.973.575" transform="translate(-8.962 -10.596)" fill="#a0a0a0"/>
  <path id="Path_38" data-name="Path 38" d="M47.139,33l-.233-.365-.07-.1c-.186.691-.342,1.2-.528,1.817,0,0-.2.683-.318,1.064A16.914,16.914,0,0,1,49.826,45v.536l-1.079.264-.2.047c.241,1.219.489,2.167.691,2.959a13.893,13.893,0,0,1,.544,2.866c0,.621,0,1.157,0,1.708.551-.14,1.087-.3,1.608-.474.241-3.541.272-8.34.272-12.262,0-2.112.054-4.8-.093-7.447A5.2,5.2,0,0,1,49,34.192,2.26,2.26,0,0,1,47.108,33" transform="translate(-9.951 -6.949)" fill="#a0a0a0"/>
  <path id="Path_39" data-name="Path 39" d="M62.752,21.335h0l-.054-.062-.132-.085h-.186a1.724,1.724,0,0,0-.777,0h-.054l-.217.062a8.589,8.589,0,0,0-2.089,1.623l-1.328-.1H57.58l.551.839.551.831a3.029,3.029,0,0,0,1.507.148.489.489,0,0,0,.132-.062,6.267,6.267,0,0,0,1.111-1.165c.427-.419.893-.9,1.149-1.211a1.04,1.04,0,0,0,.14-.179.676.676,0,0,0,.132-.357v-.039h0a.373.373,0,0,0-.093-.225" transform="translate(-12.46 -4.576)" fill="#a0a0a0"/>
  <path id="Path_40" data-name="Path 40" d="M28.228,50.1h-.186c-.241,1.235-.489,2.19-.7,2.982a13.264,13.264,0,0,0-.5,2.609v1.895c0,.443.047.955.047,1.553a16.575,16.575,0,0,1-.1,2.112l-.07,1.134a13.665,13.665,0,0,1-.683,4.458,3.526,3.526,0,0,1,1.413,1.328,6.212,6.212,0,0,0,1.98-.582h0a11.028,11.028,0,0,1,.73-3.332l.575-1.413a15.889,15.889,0,0,0,1.056-3.029,9.2,9.2,0,0,0,.194-2.027V56.282a2.237,2.237,0,0,1,.062-.629l.28-.676A34.542,34.542,0,0,0,33.9,50.8a35.654,35.654,0,0,1-4.279-.435c0,5.941,0,10.2,0,10.445,0,.513-.21.777-.676.777a.683.683,0,0,1-.777-.777Z" transform="translate(-5.816 -10.611)" fill="#a0a0a0"/>
  <path id="Path_41" data-name="Path 41" d="M28,19.6a10.367,10.367,0,0,0-1.8,1.421,6,6,0,0,0-1.2,1.74,8.612,8.612,0,0,1,2.974-.567Z" transform="translate(-5.586 -4.243)" fill="#a0a0a0"/>
  <path id="Path_42" data-name="Path 42" d="M44.785,75.575a1.685,1.685,0,0,0-.839-1.064c-.264-.124-.683-.272-1.118-.427a14.313,14.313,0,0,1-2.866-1.274c-.777.326-1.6.831-1.677,2.741H37.019a6.3,6.3,0,0,1,.14-1.165,7.952,7.952,0,0,1-1.848-.544c-.062.109-.124.2-.186.3a2.33,2.33,0,0,0-.412.777,2.019,2.019,0,0,0-.054.474.714.714,0,0,0,0,.124H24.617a.715.715,0,0,0,0-.124,2.019,2.019,0,0,0-.054-.474,2.5,2.5,0,0,0-.4-.777c-.07-.093-.132-.194-.2-.3a7.587,7.587,0,0,1-1.856.551,6.989,6.989,0,0,1,.148,1.165H20.968c-.085-1.9-.94-2.407-1.67-2.734a13.878,13.878,0,0,1-2.866,1.266c-.435.155-.854.3-1.118.427a1.74,1.74,0,0,0-.839,1.041H0v7.113H59.3v-7.09Z" transform="translate(0 -15.685)" fill="#a0a0a0"/>
  <path id="Path_43" data-name="Path 43" d="M34.8,24.764a2.151,2.151,0,0,1,.637-.544,6.15,6.15,0,0,0-4.823-4.9c0,.971,0,1.949,0,2.951A7.812,7.812,0,0,1,34.8,24.764" transform="translate(-6.839 -4.177)" fill="#a0a0a0"/>
  <path id="Path_44" data-name="Path 44" d="M33.387,8.031a10.383,10.383,0,0,1,3.619-.551,10.359,10.359,0,0,1,3.6.544c.14-1.033.287-1.965.45-2.9,0-.171,0-.272-.171-.256a3.526,3.526,0,0,0-1.553.443c-.194.124-.373.311-.179.52s.318.318.318.59a.777.777,0,0,1-.854.668,1.173,1.173,0,0,1-1.041-1.126.7.7,0,0,1,.427-.668.536.536,0,0,0,.14-.777c-.179-.311-.722-1.033-1.157-1.041s-.971.73-1.157,1.041a.536.536,0,0,0,.148.777.7.7,0,0,1,.427.668A1.173,1.173,0,0,1,35.36,7.091a.707.707,0,0,1-.777-.668c0-.272.109-.373.311-.59s0-.4-.171-.52a3.968,3.968,0,0,0-1.615-.443c-.2,0-.194.085-.171.256.171.932.311,1.856.45,2.9" transform="translate(-7.356 -0.782)" fill="#a0a0a0"/>
  <path id="Path_45" data-name="Path 45" d="M36.656,21.9h0a7.253,7.253,0,0,1,5.312-5.584,3.937,3.937,0,0,1-.932-1.01,9.482,9.482,0,0,1-.947-4.97l-.544-.163v2.881c0,2.268-1.134,2.741-2.85,2.749s-2.842-.481-2.842-2.749V10.178l-.544.163a9.583,9.583,0,0,1-.947,4.962,3.937,3.937,0,0,1-.932,1.01A7.253,7.253,0,0,1,36.687,21.9" transform="translate(-7.022 -2.277)" fill="#a0a0a0"/>
  <path id="Path_46" data-name="Path 46" d="M37.724,12.94h-.777l.039.637s.6-.047.846-.047h.652l-.256-2.12a9.319,9.319,0,0,1,1.056.124v-.621a11.424,11.424,0,0,0-1.18-.132v-.155h-.3ZM35.9,11.488a9.917,9.917,0,0,1,1.32-.1l.124-.621a9.412,9.412,0,0,0-1.444.1Zm1.685-1.771a9.544,9.544,0,0,1,2.027.155v3.106c0,1.608-.559,1.895-2.035,1.9s-2.027-.3-2.027-1.9V9.872a9.87,9.87,0,0,1,2.035-.163" transform="translate(-7.943 -2.173)" fill="#a0a0a0"/>
  <path id="Path_47" data-name="Path 47" d="M22.237,8.023a2.221,2.221,0,0,1-1.126-.474,1.087,1.087,0,0,1-.435-.885l-.039-.28a.466.466,0,0,0-.5-.365c-.621,0-.668.777-.668.986h-.458V6.944a3.106,3.106,0,0,1,.621-2.159A1.7,1.7,0,0,1,20.9,4.311c1.3,0,1.382.862,1.382,1.126a2.811,2.811,0,0,1-.2.878,3.106,3.106,0,0,0-.171.652,1.483,1.483,0,0,0,.373,1.01l.047.062Zm-1.708,2.741c-.978,0-1.553-.66-1.553-1.848h.5a.777.777,0,0,0,.21.544,1.056,1.056,0,0,0,.777.287.777.777,0,0,0,.87-.606h0a.777.777,0,0,1,.373.683c0,.365-.342.955-1.258.955M18,12.333l-.054.078-.047-.078a2.811,2.811,0,0,1-.559-1.483,3.5,3.5,0,0,1,.116-.815,4.551,4.551,0,0,0,.14-1.072H18.4a4.551,4.551,0,0,0,.14,1.072,3.5,3.5,0,0,1,.116.815,2.811,2.811,0,0,1-.559,1.483m-1.033-3.37c0,1.188-.544,1.848-1.553,1.848s-1.258-.59-1.258-.955a.777.777,0,0,1,.373-.683h.039a.777.777,0,0,0,.87.606,1.056,1.056,0,0,0,.777-.287.777.777,0,0,0,.21-.544h.5Zm-3.324-.924.047-.062a1.553,1.553,0,0,0,.326-.986,3.106,3.106,0,0,0-.171-.652,2.811,2.811,0,0,1-.2-.9c0-.272.1-1.134,1.406-1.134a1.693,1.693,0,0,1,1.266.474,3.161,3.161,0,0,1,.629,2.159v.093h-.458V6.991c0-.233-.047-.986-.668-.986a.466.466,0,0,0-.5.365v.28a1.087,1.087,0,0,1-.435.885,2.221,2.221,0,0,1-1.126.474Zm6-.567a.217.217,0,0,1,.21.217v.551a.225.225,0,0,1-.217.217H16.3a.217.217,0,0,1-.21-.217V7.689a.21.21,0,0,1,.21-.217Zm-1.879-5.6.155-.155.148.132a2.78,2.78,0,0,1,1.064,1.763,2.252,2.252,0,0,1-.287.971l-.287.676A5.491,5.491,0,0,0,18.4,6.991v.078h-.777V6.991a5.677,5.677,0,0,0-.217-1.7l-.3-.676a2.252,2.252,0,0,1-.264-1A2.741,2.741,0,0,1,17.9,1.873M20.49.366A11.509,11.509,0,0,0,15.24.258a6.857,6.857,0,0,0-4.807,3.72,8.061,8.061,0,0,0-.777,4.776,17.978,17.978,0,0,1-.047,5.032,7.867,7.867,0,0,0,0,3.883c.893,3.883,5.793,3.65,5.793,6.764a1.483,1.483,0,0,1-.419,1.033,2.33,2.33,0,0,0-2.019-2.035c-.893,1.235-2.617,1.514-2.555,4.659v2.33c-.062,3.627,5.2,4.256,5.2,7.036a2.446,2.446,0,0,1-.225,1.134,1.553,1.553,0,0,0-.66-1.134,7.579,7.579,0,0,1-2.578,3.013v.846c2.485-.846,4.186-1.856,4.186-3.976v-2.26c0-3.153-1.2-2.71-2.967-4.776a2.33,2.33,0,0,0-1.3,2.066,2.2,2.2,0,0,1-.559-1.32c-.109-2.819,4.659-3.751,4.659-6.787V20.969c0-2.835-1.833-3.6-3.013-4.737a2.679,2.679,0,0,0-1.9,2.656,2.563,2.563,0,0,1-.582-1.608c0-1.732,1.235-2.788,2.912-3.363a14.9,14.9,0,0,1,6.989-.1,13.831,13.831,0,0,0,3.922.419V.778A12.821,12.821,0,0,1,20.474.39" transform="translate(-2.093 -0.006)" fill="#a0a0a0"/>
</svg>
